<?xml version="1.0" encoding="utf-8"?>
<!-- Generator: Adobe Illustrator 19.0.0, SVG Export Plug-In . SVG Version: 6.00 Build 0)  -->
<!DOCTYPE svg PUBLIC "-//W3C//DTD SVG 1.1//EN" "http://www.w3.org/Graphics/SVG/1.1/DTD/svg11.dtd">
<svg version="1.1" id="Layer_1" xmlns="http://www.w3.org/2000/svg" xmlns:xlink="http://www.w3.org/1999/xlink" x="0px" y="0px"
	 viewBox="0 0 106.6 27" style="enable-background:new 0 0 106.6 27;" xml:space="preserve">
<style type="text/css">
	.st0{fill:#005DAA;}
</style>
<path id="XMLID_1_" class="st0" d="M35.8,4.8V5c1.5,1.1,2.5,2.7,2.5,4.7c0,2-1,3.7-2.5,4.8v0.1l8.4-4.2L35.8,4.8"/>
<path id="XMLID_2_" class="st0" d="M7.2,0c4.5,0,7.2,3.4,7.2,7.7c0,4.2-2.7,7.6-7.2,7.6C2.7,15.3,0,11.9,0,7.7C0,3.4,2.7,0,7.2,0
	 M7.2,12.6c2.9,0,4-2.5,4-4.9c0-2.6-1.1-5-4-5c-2.9,0-4,2.5-4,5C3.2,10.1,4.3,12.6,7.2,12.6"/>
<path id="XMLID_5_" class="st0" d="M15,4.4h2.8v1.5h0.1c0.7-1.2,2-1.8,3.2-1.8c3.1,0,3.9,1.7,3.9,4.4v6.5H22V9
	c0-1.7-0.5-2.6-1.9-2.6c-1.6,0-2.2,0.9-2.2,3v5.5H15V4.4"/>
<path id="XMLID_6_" class="st0" d="M28.7,10.4c0.1,1.8,1,2.7,2.6,2.7c1.2,0,2.1-0.7,2.3-1.4h2.6c-0.8,2.5-2.6,3.6-4.9,3.6
	c-3.3,0-5.4-2.3-5.4-5.6c0-3.2,2.2-5.6,5.4-5.6c3.6,0,5.3,3,5.1,6.3H28.7 M33.4,8.5c-0.3-1.5-0.9-2.2-2.3-2.2
	c-1.8,0-2.4,1.4-2.4,2.2H33.4z"/>
<path id="XMLID_9_" d="M46.7,13c0,1.9,1.5,2.7,3.2,2.7c1.1,0,2.8-0.3,2.8-1.8c0-1.6-2.2-1.8-4.3-2.4c-2.2-0.6-4.4-1.4-4.4-4.2
	c0-3,2.8-4.4,5.5-4.4c3,0,5.8,1.3,5.8,4.7h-3.1c-0.1-1.8-1.3-2.2-2.9-2.2c-1,0-2.2,0.4-2.2,1.7c0,1.1,0.7,1.3,4.4,2.2
	c1.1,0.3,4.3,0.9,4.3,4.3c0,2.7-2.1,4.7-6.1,4.7c-3.2,0-6.3-1.6-6.2-5.2H46.7"/>
<path id="XMLID_10_" d="M61.8,7c3.3,0,5.5,2.2,5.5,5.6c0,3.4-2.2,5.6-5.5,5.6c-3.3,0-5.5-2.2-5.5-5.6C56.3,9.2,58.5,7,61.8,7
	 M61.8,15.9c2,0,2.6-1.7,2.6-3.4c0-1.7-0.6-3.4-2.6-3.4c-2,0-2.6,1.7-2.6,3.4C59.2,14.2,59.8,15.9,61.8,15.9"/>
<path id="XMLID_13_" d="M77.8,17.8h-2.8v-1.5H75c-0.7,1.2-2,1.8-3.2,1.8c-3.1,0-3.9-1.7-3.9-4.4V7.3h2.9v6c0,1.7,0.5,2.6,1.9,2.6
	c1.6,0,2.2-0.9,2.2-3V7.3h2.9V17.8"/>
<path id="XMLID_14_" d="M78.8,7.3h2.8v2h0C82.1,7.9,83.6,7,85,7c0.2,0,0.4,0,0.6,0.1v2.7c-0.3-0.1-0.7-0.1-1-0.1
	c-2.1,0-2.9,1.5-2.9,3.4v4.8h-2.9V7.3"/>
<path id="XMLID_15_" d="M92.8,11c-0.2-1.2-0.9-1.8-2.1-1.8c-1.9,0-2.5,1.9-2.5,3.4c0,1.5,0.6,3.3,2.4,3.3c1.3,0,2.1-0.9,2.3-2.1h2.8
	c-0.4,2.8-2.3,4.3-5.1,4.3c-3.2,0-5.3-2.2-5.3-5.4c0-3.3,2-5.7,5.4-5.7c2.5,0,4.8,1.3,5,4H92.8"/>
<path id="XMLID_16_" d="M98.9,13.2c0.1,1.8,1,2.7,2.6,2.7c1.2,0,2.1-0.7,2.3-1.4h2.6c-0.8,2.5-2.6,3.6-4.9,3.6
	c-3.3,0-5.4-2.3-5.4-5.6c0-3.2,2.2-5.6,5.4-5.6c3.6,0,5.3,3,5.1,6.3H98.9 M103.6,11.4c-0.3-1.5-0.9-2.2-2.3-2.2
	c-1.8,0-2.4,1.4-2.4,2.2H103.6z"/>
<path id="XMLID_19_" d="M104.9,4.5c0.6,0,1.1,0.5,1.1,1.1c0,0.6-0.5,1.1-1.1,1.1c-0.6,0-1.1-0.5-1.1-1.1
	C103.8,4.9,104.3,4.5,104.9,4.5 M104.9,6.5c0.5,0,0.9-0.4,0.9-0.9c0-0.5-0.4-0.9-0.9-0.9c-0.5,0-0.9,0.4-0.9,0.9
	C104,6.1,104.4,6.5,104.9,6.5 M104.4,4.9h0.5c0.3,0,0.4,0.1,0.4,0.4c0,0.2-0.1,0.3-0.3,0.3l0.4,0.6h-0.2l-0.3-0.5h-0.2v0.5h-0.2V4.9
	z M104.6,5.5h0.2c0.2,0,0.3,0,0.3-0.2c0-0.2-0.1-0.2-0.3-0.2h-0.3V5.5z"/>
<polygon id="XMLID_24_" points="43.6,20.8 44.2,20.8 44.2,25.1 46.8,25.1 46.8,25.6 43.6,25.6 "/>
<path id="XMLID_25_" d="M50.5,25.6c-0.1,0.1-0.2,0.1-0.4,0.1c-0.3,0-0.5-0.2-0.5-0.5c-0.3,0.4-0.7,0.5-1.2,0.5c-0.6,0-1.2-0.3-1.2-1
	c0-0.8,0.6-1,1.2-1.1c0.6-0.1,1.2-0.1,1.2-0.5c0-0.5-0.4-0.6-0.8-0.6c-0.5,0-0.8,0.1-0.9,0.7h-0.6c0-0.9,0.7-1.2,1.5-1.2
	c0.6,0,1.3,0.1,1.3,1v1.8c0,0.3,0,0.4,0.2,0.4c0,0,0.1,0,0.2,0V25.6z M49.6,23.8c-0.2,0.2-0.7,0.2-1,0.2c-0.4,0.1-0.7,0.2-0.7,0.6
	c0,0.4,0.3,0.5,0.7,0.5c0.8,0,1.1-0.5,1.1-0.8V23.8z"/>
<path id="XMLID_28_" d="M51.3,20.8h0.6v1.8h0c0.2-0.4,0.6-0.6,1.1-0.6c1.1,0,1.6,0.9,1.6,1.8s-0.5,1.8-1.6,1.8
	c-0.4,0-0.9-0.1-1.1-0.5h0v0.5h-0.6V20.8z M52.9,22.6c-0.8,0-1.1,0.7-1.1,1.3c0,0.7,0.3,1.3,1.1,1.3c0.8,0,1-0.7,1-1.4
	C54,23.2,53.6,22.6,52.9,22.6"/>
<path id="XMLID_31_" d="M57,22c1.1,0,1.7,0.8,1.7,1.8c0,1-0.6,1.8-1.7,1.8c-1.1,0-1.7-0.8-1.7-1.8C55.3,22.9,55.9,22,57,22 M57,25.2
	c0.6,0,1.1-0.5,1.1-1.3c0-0.8-0.5-1.3-1.1-1.3c-0.6,0-1.1,0.5-1.1,1.3C55.9,24.7,56.4,25.2,57,25.2"/>
<path id="XMLID_34_" d="M59.5,22.1H60v0.7h0c0.3-0.6,0.7-0.8,1.3-0.8v0.6c-0.9,0-1.3,0.5-1.3,1.4v1.6h-0.6V22.1z"/>
<path id="XMLID_35_" d="M65,25.6c-0.1,0.1-0.2,0.1-0.4,0.1c-0.3,0-0.5-0.2-0.5-0.5c-0.3,0.4-0.7,0.5-1.2,0.5c-0.6,0-1.2-0.3-1.2-1
	c0-0.8,0.6-1,1.2-1.1c0.6-0.1,1.2-0.1,1.2-0.5c0-0.5-0.4-0.6-0.8-0.6c-0.5,0-0.8,0.1-0.9,0.7h-0.6c0-0.9,0.7-1.2,1.5-1.2
	c0.6,0,1.3,0.1,1.3,1v1.8c0,0.3,0,0.4,0.2,0.4c0,0,0.1,0,0.2,0V25.6z M64.1,23.8c-0.2,0.2-0.7,0.2-1,0.2c-0.4,0.1-0.7,0.2-0.7,0.6
	c0,0.4,0.3,0.5,0.7,0.5c0.8,0,1.1-0.5,1.1-0.8V23.8z"/>
<path id="XMLID_38_" d="M66.6,22.1h0.7v0.5h-0.7v2.2c0,0.3,0.1,0.3,0.4,0.3h0.3v0.5h-0.4c-0.6,0-0.8-0.1-0.8-0.8v-2.2h-0.6v-0.5H66
	v-1h0.6V22.1z"/>
<path id="XMLID_39_" d="M69.6,22c1.1,0,1.7,0.8,1.7,1.8c0,1-0.6,1.8-1.7,1.8c-1.1,0-1.7-0.8-1.7-1.8C67.9,22.9,68.5,22,69.6,22
	 M69.6,25.2c0.6,0,1.1-0.5,1.1-1.3c0-0.8-0.5-1.3-1.1-1.3c-0.6,0-1.1,0.5-1.1,1.3C68.5,24.7,69,25.2,69.6,25.2"/>
<path id="XMLID_42_" d="M72.1,22.1h0.5v0.7h0C73,22.3,73.3,22,74,22v0.6c-0.9,0-1.3,0.5-1.3,1.4v1.6h-0.6V22.1z"/>
<path id="XMLID_43_" d="M76,26.1c-0.3,0.7-0.5,0.9-1,0.9c-0.1,0-0.3,0-0.4-0.1v-0.5c0.1,0,0.2,0.1,0.3,0.1c0.2,0,0.4-0.1,0.5-0.3
	l0.2-0.6l-1.4-3.5h0.6l1,2.9h0l1-2.9h0.6L76,26.1z"/>
<path id="XMLID_44_" d="M83.1,22.2c-0.1-0.7-0.5-1-1.2-1c-0.5,0-1.1,0.2-1.1,0.8c0,0.6,0.8,0.7,1.5,0.9c0.8,0.2,1.5,0.4,1.5,1.4
	c0,1-1,1.4-1.9,1.4c-1.1,0-2-0.5-2-1.7h0.6c0,0.8,0.7,1.2,1.4,1.2c0.6,0,1.2-0.2,1.2-0.9c0-0.7-0.8-0.8-1.5-0.9
	c-0.8-0.2-1.5-0.4-1.5-1.3c0-1,0.9-1.4,1.7-1.4c1,0,1.7,0.5,1.8,1.5H83.1z"/>
<path id="XMLID_45_" d="M87.8,24.5c-0.2,0.8-0.7,1.2-1.5,1.2c-1.1,0-1.6-0.8-1.7-1.8c0-1,0.7-1.8,1.6-1.8c1.2,0,1.6,1.2,1.6,2h-2.6
	c0,0.6,0.3,1.1,1.1,1.1c0.5,0,0.8-0.2,0.9-0.7H87.8z M87.2,23.5c0-0.5-0.4-1-1-1c-0.6,0-1,0.5-1,1H87.2z"/>
<path id="XMLID_48_" d="M88.6,22.1h0.5v0.7h0c0.3-0.6,0.7-0.8,1.3-0.8v0.6c-0.9,0-1.3,0.5-1.3,1.4v1.6h-0.6V22.1z"/>
<polygon id="XMLID_49_" points="92.6,25.6 92,25.6 90.7,22.1 91.3,22.1 92.3,25 92.3,25 93.3,22.1 93.9,22.1 "/>
<path id="XMLID_50_" d="M95.2,21.5h-0.6v-0.7h0.6V21.5z M94.6,22.1h0.6v3.5h-0.6V22.1z"/>
<path id="XMLID_53_" d="M98.7,23.2c-0.1-0.4-0.4-0.7-0.9-0.7c-0.8,0-1.1,0.7-1.1,1.4c0,0.6,0.3,1.3,1,1.3c0.6,0,0.9-0.3,1-0.9h0.6
	c-0.1,0.9-0.7,1.4-1.5,1.4c-1.1,0-1.6-0.7-1.6-1.8c0-1,0.5-1.9,1.6-1.9c0.8,0,1.4,0.4,1.5,1.2H98.7z"/>
<path id="XMLID_54_" d="M103.1,24.5c-0.2,0.8-0.7,1.2-1.5,1.2c-1.1,0-1.6-0.8-1.7-1.8c0-1,0.7-1.8,1.6-1.8c1.2,0,1.6,1.2,1.6,2h-2.6
	c0,0.6,0.3,1.1,1.1,1.1c0.5,0,0.8-0.2,0.9-0.7H103.1z M102.5,23.5c0-0.5-0.4-1-1-1c-0.6,0-1,0.5-1,1H102.5z"/>
<path id="XMLID_57_" d="M104.3,24.5c0,0.5,0.5,0.7,0.9,0.7c0.4,0,0.8-0.1,0.8-0.5c0-0.4-0.6-0.5-1.1-0.6c-0.6-0.1-1.1-0.3-1.1-1
	c0-0.7,0.7-1,1.3-1c0.8,0,1.4,0.2,1.4,1.1h-0.6c0-0.4-0.4-0.6-0.8-0.6c-0.3,0-0.7,0.1-0.7,0.4c0,0.4,0.6,0.5,1.1,0.6
	c0.6,0.1,1.1,0.3,1.1,1c0,0.8-0.8,1.1-1.5,1.1c-0.8,0-1.4-0.3-1.5-1.2H104.3z"/>
</svg>
