<?xml version="1.0" encoding="utf-8"?>
<!-- Generator: Adobe Illustrator 19.0.0, SVG Export Plug-In . SVG Version: 6.00 Build 0)  -->
<!DOCTYPE svg PUBLIC "-//W3C//DTD SVG 1.1//EN" "http://www.w3.org/Graphics/SVG/1.1/DTD/svg11.dtd">
<svg version="1.1" id="Layer_1" xmlns="http://www.w3.org/2000/svg" xmlns:xlink="http://www.w3.org/1999/xlink" x="0px" y="0px"
	 viewBox="0 0 283.5 60.4" style="enable-background:new 0 0 283.5 60.4;" xml:space="preserve">
<style type="text/css">
	.st0{fill-rule:evenodd;clip-rule:evenodd;fill:#4B63AE;}
	.st1{fill:#CFAB7A;}
	.st2{fill-rule:evenodd;clip-rule:evenodd;fill:#B2BB1E;}
</style>
<g>
	<rect x="197.2" y="10.5" class="st0" width="5.8" height="39.4"/>
	<path class="st0" d="M134.5,15.5c-7.8,0-14,6.6-14,14.8c0,8.1,6.3,14.5,14.3,14.5c7.9,0,14.2-6.4,14.2-14.5
		C148.9,21.9,142.7,15.5,134.5,15.5z M134.7,10.2c11.2,0,20,8.8,20,20.1c0,11-9,20-20,20c-11.1,0-20.1-9-20.1-20
		C114.6,19.1,123.5,10.2,134.7,10.2z"/>
	<path class="st0" d="M13.5,15c-3.6,0-6.7,2.5-6.3,6.2c0.2,1.6,1,2.6,2.5,3.6c0.4,0.3,1.3,0.6,2.4,1c1.1,0.4,2.5,0.9,3.9,1.4
		c2.8,1,5.7,2.1,6.9,3.3c2.1,2,3.3,4.5,3.3,7.5c0,7.4-6,12.4-13,12.4C6.2,50.5,0.2,45.6,0,38.4h5.6c0.7,4.9,3.8,7.1,7.7,7.1
		c3.6,0,7.4-2.3,7.4-6.5c0-2.3-1.1-4-3.2-5.1c-0.5-0.3-1.3-0.6-2.3-0.9c-0.9-0.3-2-0.7-3.1-1c-2.2-0.7-4.5-1.5-5.9-2.4
		c-2.8-1.7-4.6-4.6-4.6-8C1.5,14.8,6.6,10,13.7,10c5.6,0,11.4,4.4,11.8,10.7h-5.6C19.6,17.3,16.7,15,13.5,15z"/>
	<path class="st0" d="M168.2,10.5l18.6,0v5.3h-16.7v12.8h16.7v5.3h-16.7v16h-5.7V14.4C164.3,12.2,166.1,10.5,168.2,10.5z"/>
	<path class="st0" d="M80.4,19.7l0,30.2h-5.8l0-35.7c0-2.2,1.8-4,4-4c1.4,0,2.6,0.6,3.4,1.9c5.7,9.2,16.2,26.7,17.3,28.6l0-30.2h5.8
		l0,35.7c0,2.2-1.8,4-4,4c-1.4,0-2.6-0.6-3.4-1.9C92,39.1,81.5,21.6,80.4,19.7z"/>
	<path class="st0" d="M48.7,17.8l-5.8,15.9l11.6,0L48.7,17.8z M41,38.8L37,49.9h-6l14.1-37.3c0.5-1.4,2-2.5,3.6-2.5
		c1.6,0,3.1,1,3.6,2.5l14.1,37.3h-6l-4.1-11.1L41,38.8z"/>
	<path class="st1" d="M282.1,21.1c-9.7-14.3-20.7-1.7-31.6-3.3c-10.9-1.5-11.3-16.5,2.1-17.7c0.3,0,0.6-0.1,1-0.1
		C266.9,0.1,278.2,9,282.1,21.1z"/>
	<path class="st0" d="M282.3,21.9c0.7,2.6,1.1,5.4,1.1,8.3c0,16.7-13.5,30.2-30.2,30.2c-7.3,0-14-2.6-19.3-7
		c2.1,0.8,4.5,1.2,6.6,1.2C267.9,54.8,256.2,18.4,282.3,21.9z"/>
	<path class="st2" d="M242.2,51c-3.8,2.3-9.8,1.6-14-4.1c-0.9-1.3-1.7-2.6-2.3-3.8c-1.8-3.9-2.9-8.3-2.9-12.9c0-1.2,0.1-2.4,0.2-3.6
		c6.6,8.9,14.2,8.6,19,11.5c2.1,1.3,3.6,3.7,3.6,6.4C245.8,47.2,244.3,49.7,242.2,51z"/>
</g>
</svg>
